<svg xmlns="http://www.w3.org/2000/svg" data-name="Layer 2" viewBox="0 0 281.7 262.8">
  <g data-name="Layer 1">
    <path fill="#ededed" d="M155.7 0h-24c79.4 0 126 46 126 129.8s-46.8 133-126 133h24c79.2 0 126-49 126-133S235.1 0 155.7 0Z"/>
    <path fill="#d8d8d8" d="M0 227.8V35C0 12.7 12.4 0 33.5 0h73.2c79.4 0 126 46 126 129.8s-46.8 133-126 133H33.5C12.4 262.8 0 250 0 227.8Zm98-19c43.5 0 66.8-26.3 66.8-78.8 0-49.3-24.6-76-66.8-76H66.8v155H98Z"/>
    <path fill="#e5e5e5" d="M131.7 0h-25c79.4 0 126 46 126 129.8s-46.8 133-126 133h25c79.2 0 126-49 126-133S211.1 0 131.7 0Z"/>
  </g>
</svg>
